<svg version="1" xmlns="http://www.w3.org/2000/svg" width="533.333" height="533.333" viewBox="0 0 400.000000 400.000000"><path d="M171.3 1.6C136.2 6.7 101 22.1 72.9 44.8 65.2 51 50.7 66.1 43.9 75c-1 1.4-3.3 4.3-5 6.5-12 15.5-24.5 41-30.7 62.5-6.1 21-7.7 33.5-7.6 58 .1 25 3.4 44.4 11.2 65.5 2.7 7.2 4.1 10.6 7.6 18.5 3.7 8.4 16.9 30.1 18.8 30.8.4.2.8 1 .8 1.8s.4 1.4.8 1.4 1.5 1.2 2.4 2.7c2.8 4.8 17.3 20.1 26.7 28.3 6.6 5.8 21.9 17 26.1 19.2 1.4.7 2.7 1.6 3 2 2 2.6 38 17.9 47.8 20.4.9.2 4.4 1 7.7 1.9 3.3.8 8 1.8 10.5 2.1 2.5.3 4.7.8 5 .9 4.2 2.5 54.9 2.6 62.1.1.7-.3 3-.7 4.9-1 5.4-.8 16.8-3.5 24-5.8 8.9-2.8 27.9-10.7 31.3-13 1.5-1.1 2.7-1.7 2.7-1.4 0 .9 19.1-11.3 26.5-16.9 7.4-5.6 8.4-6.5 20.7-17.6 23.8-21.6 45.4-59.7 53.9-95.5 6.6-27.9 6.6-64.9 0-92.8-6.3-26.4-19.9-54.8-37-77.1-6.5-8.5-22.3-24.7-31.1-31.8-28.3-22.8-63.3-38.1-99.1-43.2C215-.3 184-.3 171.3 1.6z"/></svg>